<?xml version="1.0" encoding="UTF-8" standalone="no"?>
<svg width="18px" height="16px" viewBox="0 0 18 16" version="1.1" xmlns="http://www.w3.org/2000/svg" xmlns:xlink="http://www.w3.org/1999/xlink">
    <!-- Generator: sketchtool 39.1 (31720) - http://www.bohemiancoding.com/sketch -->
    <title>B0FED59A-5593-4BF9-B126-4AE9EE5E05BF</title>
    <desc>Created with sketchtool.</desc>
    <defs>
        <rect id="path-1" x="0" y="0" width="430" height="295" rx="4"></rect>
        <mask id="mask-2" maskContentUnits="userSpaceOnUse" maskUnits="objectBoundingBox" x="0" y="0" width="430" height="295" fill="white">
            <use xlink:href="#path-1"></use>
        </mask>
        <mask id="mask-4" maskContentUnits="userSpaceOnUse" maskUnits="objectBoundingBox" x="0" y="0" width="430" height="295" fill="white">
            <use xlink:href="#path-1"></use>
        </mask>
    </defs>
    <g id="Page-1" stroke="none" stroke-width="1" fill="none" fill-rule="evenodd">
        <g id="search-user" transform="translate(-554.000000, -478.000000)">
            <g id="repo01-copy" transform="translate(498.000000, 108.000000)">
                <g id="Issues-container" transform="translate(2.000000, 205.000000)">
                    <mask id="mask-3" fill="white">
                        <use xlink:href="#path-1"></use>
                    </mask>
                    <g id="Mask" stroke="#F1F1F2" mask="url(#mask-2)" stroke-width="2" fill="#FFFFFF">
                        <use mask="url(#mask-4)" xlink:href="#path-1"></use>
                    </g>
                    <g id="Issue" mask="url(#mask-3)" opacity="0.4">
                        <g transform="translate(12.000000, 115.000000)" id="icon">
                            <g transform="translate(42.000000, 49.000000)">
                                <g id="convers">
                                    <rect id="icon" fill-opacity="0" fill="#D8D8D8" x="0" y="0" width="18" height="18"></rect>
                                    <path d="M9.34304531,15.2005583 C8.06326406,15.2005583 6.97787344,14.9498639 5.90537344,14.5144472 C5.68881094,14.4263083 3.95270156,15.270225 3.26021719,15.5013917 C3.13698281,15.5425583 3.01065469,15.4544194 3.00498281,15.3219472 C2.97352969,14.6215861 3.47729531,12.8651417 3.28496719,12.6851694 C2.08665469,11.5673361 1.58804531,10.3793083 1.58804531,8.76166944 C1.58804531,5.20550278 5.06026406,2.32278056 9.34304531,2.32278056 C13.6258266,2.32278056 17.0975297,5.20550278 17.0975297,8.76166944 C17.0975297,12.3178361 13.6258266,15.2005583 9.34304531,15.2005583 Z" id="Stroke-21" stroke-opacity="0.8" stroke="#151724" stroke-linecap="round" stroke-linejoin="round"></path>
                                </g>
                            </g>
                        </g>
                    </g>
                </g>
                <g id="Issue-title" transform="translate(0.000000, 174.000000)"></g>
            </g>
        </g>
    </g>
</svg>