<?xml version="1.0" encoding="UTF-8" standalone="no"?>
<svg width="24px" height="22px" viewBox="0 0 24 22" version="1.1" xmlns="http://www.w3.org/2000/svg" xmlns:xlink="http://www.w3.org/1999/xlink">
    <!-- Generator: sketchtool 39.1 (31720) - http://www.bohemiancoding.com/sketch -->
    <title>EA6CA299-DE9C-44C8-9F1F-8C31B420F6E6</title>
    <desc>Created with sketchtool.</desc>
    <defs></defs>
    <g id="Page-1" stroke="none" stroke-width="1" fill="none" fill-rule="evenodd">
        <g id="home-giistr.io-template02" transform="translate(-194.000000, -431.000000)" fill="#4F7CF7">
            <g id="button" transform="translate(140.000000, 419.000000)">
                <g id="icon-+-sign-up" transform="translate(54.000000, 12.000000)">
                    <g id="github-icon">
                        <rect id="24x24" fill-opacity="0" x="0" y="0" width="24" height="24"></rect>
                        <path d="M11.9993,0.766666667 C5.8148,0.766666667 0.8,5.59089397 0.8,11.5432213 C0.8,16.3034668 4.0088,20.3424018 8.4601,21.7675121 C9.0201,21.8665155 9.2245,21.5338102 9.2245,21.2482493 C9.2245,20.9923221 9.2147,20.3147886 9.2091,19.415676 C6.0934,20.0669433 5.4361,17.9710344 5.4361,17.9710344 C4.9272,16.7264202 4.1929,16.3950618 4.1929,16.3950618 C3.1758,15.7262837 4.2699,15.7397536 4.2699,15.7397536 C5.3934,15.8158582 5.9849,16.8503428 5.9849,16.8503428 C6.9845,18.4970321 8.6064,18.0215464 9.2448,17.7454144 C9.3463,17.0490231 9.6361,16.5742108 9.956,16.3048138 C7.4689,16.0327228 4.8544,15.108691 4.8544,10.979508 C4.8544,9.80291652 5.2905,8.84116913 6.0073,8.08753094 C5.8918,7.81476644 5.5075,6.71966752 6.1165,5.23596338 C6.1165,5.23596338 7.0573,4.94636158 9.1965,6.3404912 C10.0904,6.10140134 11.048,5.98219315 12.0007,5.9774787 C12.952,5.98219315 13.9103,6.10140134 14.8049,6.3404912 C16.9427,4.94636158 17.8814,5.23596338 17.8814,5.23596338 C18.4925,6.71966752 18.1082,7.81476644 17.9927,8.08753094 C18.7109,8.84116913 19.1442,9.80291652 19.1442,10.979508 C19.1442,15.1187934 16.5255,16.0300289 14.0307,16.2967319 C14.4325,16.6294372 14.7909,17.286766 14.7909,18.2922904 C14.7909,19.732891 14.7769,20.8946657 14.7769,21.2482493 C14.7769,21.5365041 14.9785,21.8719034 15.5469,21.7661651 C19.994,20.3383608 23.2,16.3021198 23.2,11.5432213 C23.2,5.59089397 18.1852,0.766666667 11.9993,0.766666667" id="Github"></path>
                    </g>
                </g>
            </g>
        </g>
    </g>
</svg>