<?xml version="1.0" encoding="UTF-8" standalone="no"?>
<svg width="54px" height="19px" viewBox="0 0 54 19" version="1.1" xmlns="http://www.w3.org/2000/svg" xmlns:xlink="http://www.w3.org/1999/xlink">
    <!-- Generator: sketchtool 39.1 (31720) - http://www.bohemiancoding.com/sketch -->
    <title>41771F8F-0FBC-4922-B7E5-306B4561510E</title>
    <desc>Created with sketchtool.</desc>
    <defs>
        <rect id="path-1" x="0" y="0" width="1280" height="64"></rect>
        <filter x="-50%" y="-50%" width="200%" height="200%" filterUnits="objectBoundingBox" id="filter-2">
            <feOffset dx="0" dy="1" in="SourceAlpha" result="shadowOffsetOuter1"></feOffset>
            <feColorMatrix values="0 0 0 0 0.0823529412   0 0 0 0 0.0901960784   0 0 0 0 0.141176471  0 0 0 0.05 0" type="matrix" in="shadowOffsetOuter1"></feColorMatrix>
        </filter>
    </defs>
    <g id="tests" stroke="none" stroke-width="1" fill="none" fill-rule="evenodd">
        <g id="about-user-not-logged" transform="translate(-42.000000, -22.000000)">
            <g id="head">
                <g id="container">
                    <use fill="black" fill-opacity="1" filter="url(#filter-2)" xlink:href="#path-1"></use>
                    <use fill="#FFFFFF" fill-rule="evenodd" xlink:href="#path-1"></use>
                </g>
                <g id="logo" transform="translate(42.000000, 22.000000)">
                    <path d="M16.9586103,8.6775349 L11.8101804,8.6775349 L11.8101804,11.118424 L13.9433944,11.118424 L13.9433944,14.0105698 C13.6972543,14.1336398 13.1229275,14.2156865 12.4050189,14.2156865 C9.84105983,14.2156865 8.0565443,12.5337294 8.0565443,9.68260686 C8.0565443,6.68790264 10.0256649,5.2110622 12.6306473,5.2110622 C14.1485111,5.2110622 15.0920481,5.47771395 15.8509799,5.80590071 L16.5073535,3.30347663 C15.8304683,2.97528987 14.4561862,2.62659143 12.6716707,2.62659143 C8.13859099,2.62659143 4.79518834,5.25208555 4.77467666,9.84670024 C4.75416499,11.8773558 5.45156186,13.682383 6.72328558,14.8720601 C7.99500929,16.1027604 9.82054816,16.7386223 12.3434839,16.7386223 C14.1690228,16.7386223 15.9945617,16.2873655 16.9586103,15.9591787 L16.9586103,8.6775349 Z M22.4147152,16.5950406 L22.4147152,6.5648326 L19.296941,6.5648326 L19.296941,16.5950406 L22.4147152,16.5950406 Z M20.8558281,2.19584631 C19.8507561,2.19584631 19.1943826,2.87273151 19.2148943,3.77524511 C19.1943826,4.63673536 19.8507561,5.33413224 20.8353164,5.33413224 C21.8609001,5.33413224 22.5172736,4.63673536 22.5172736,3.77524511 C22.4967619,2.87273151 21.8609001,2.19584631 20.8558281,2.19584631 L20.8558281,2.19584631 Z M28.0349136,16.5950406 L28.0349136,6.5648326 L24.9171393,6.5648326 L24.9171393,16.5950406 L28.0349136,16.5950406 Z M26.4760264,2.19584631 C25.4709545,2.19584631 24.8145809,2.87273151 24.8350926,3.77524511 C24.8145809,4.63673536 25.4709545,5.33413224 26.4555148,5.33413224 C27.4810984,5.33413224 28.1374719,4.63673536 28.1374719,3.77524511 C28.1169603,2.87273151 27.4810984,2.19584631 26.4760264,2.19584631 L26.4760264,2.19584631 Z M29.9630108,16.1027604 C30.7219427,16.5129939 31.891108,16.8001573 33.2038551,16.8001573 C36.0754893,16.8001573 37.5523297,15.4258752 37.5523297,13.559313 C37.531818,12.0824726 36.7318628,11.118424 34.8242772,10.4620504 C33.5935769,10.0313053 33.2038551,9.78516522 33.2038551,9.31339675 C33.2038551,8.80060493 33.6346002,8.49292984 34.3935321,8.49292984 C35.2550224,8.49292984 36.1165126,8.8211166 36.5677694,9.06725668 L37.1215846,6.91353104 C36.5062344,6.60585595 35.4601391,6.3392042 34.2909738,6.3392042 C31.8090613,6.3392042 30.2091509,7.75450962 30.2091509,9.62107184 C30.1886392,10.8107489 30.9885944,11.9388909 33.0602734,12.6362877 C34.2294387,13.0260095 34.5371138,13.2721496 34.5371138,13.7849414 C34.5371138,14.2977332 34.147392,14.62592 33.2038551,14.62592 C32.2808298,14.62592 31.0911528,14.2156865 30.516826,13.8669881 L29.9630108,16.1027604 Z M39.8701487,4.39059529 L39.8701487,6.5648326 L38.53689,6.5648326 L38.53689,8.86213995 L39.8701487,8.86213995 L39.8701487,12.9644745 C39.8701487,14.3797799 40.1573122,15.3438285 40.731639,15.938667 C41.2239191,16.4514589 42.0648977,16.8001573 43.0699697,16.8001573 C43.9519716,16.8001573 44.6903918,16.6975989 45.1006253,16.5335056 L45.0801136,14.1746632 C44.8544852,14.2156865 44.5468101,14.2567099 44.1570883,14.2567099 C43.2135514,14.2567099 42.926388,13.7028947 42.926388,12.492706 L42.926388,8.86213995 L45.1621603,8.86213995 L45.1621603,6.5648326 L42.926388,6.5648326 L42.926388,3.69319842 L39.8701487,4.39059529 Z M46.9671875,16.5950406 L50.0849618,16.5950406 L50.0849618,11.5081457 C50.0849618,11.2620057 50.1054734,11.0158656 50.1464968,10.8107489 C50.3516135,9.84670024 51.1310571,9.23135006 52.2797108,9.23135006 C52.6284092,9.23135006 52.8950609,9.27237341 53.1206893,9.31339675 L53.1206893,6.38022755 C52.8950609,6.3392042 52.7514792,6.3392042 52.4643158,6.3392042 C51.5002672,6.3392042 50.2695668,6.95455438 49.756775,8.41088315 L49.6747283,8.41088315 L49.57217,6.5648326 L46.8851408,6.5648326 C46.9261642,7.42632286 46.9671875,8.39037148 46.9671875,9.86721192 L46.9671875,16.5950406 Z" id="Giistr" fill-opacity="0.8" fill="#242A3F"></path>
                    <g id="Group-2" transform="translate(19.000000, 2.000000)" fill="#4F7CF7">
                        <polygon id="Path" points="3.41471523 14.5950406 3.41471523 4.5648326 0.296940972 4.5648326 0.296940972 14.5950406"></polygon>
                        <path d="M1.8558281,0.195846306 C0.850756136,0.195846306 0.194382608,0.872731507 0.214894281,1.77524511 C0.194382608,2.63673536 0.850756136,3.33413224 1.83531643,3.33413224 C2.86090007,3.33413224 3.51727359,2.63673536 3.51727359,1.77524511 C3.49676192,0.872731507 2.86090007,0.195846306 1.8558281,0.195846306 L1.8558281,0.195846306 Z" id="Path"></path>
                        <polygon id="Path" points="9.03491356 14.5950406 9.03491356 4.5648326 5.91713931 4.5648326 5.91713931 14.5950406"></polygon>
                        <path d="M7.47602643,0.195846306 C6.47095447,0.195846306 5.81458094,0.872731507 5.83509261,1.77524511 C5.81458094,2.63673536 6.47095447,3.33413224 7.45551476,3.33413224 C8.4810984,3.33413224 9.13747193,2.63673536 9.13747193,1.77524511 C9.11696025,0.872731507 8.4810984,0.195846306 7.47602643,0.195846306 L7.47602643,0.195846306 Z" id="Path"></path>
                    </g>
                    <g id="Group-5" fill="#4F7CF7">
                        <polygon id="/" points="10.6769569 0.343046116 4.07225805 18.0606052 0.715374428 18.0606052 7.32007325 0.343046116"></polygon>
                    </g>
                </g>
            </g>
        </g>
    </g>
</svg>